<?xml version="1.0" encoding="utf-8"?>
<!-- Generator: Adobe Illustrator 15.1.0, SVG Export Plug-In . SVG Version: 6.00 Build 0)  -->
<!DOCTYPE svg PUBLIC "-//W3C//DTD SVG 1.1//EN" "http://www.w3.org/Graphics/SVG/1.1/DTD/svg11.dtd">
<svg version="1.1" id="Layer_1" xmlns="http://www.w3.org/2000/svg" xmlns:xlink="http://www.w3.org/1999/xlink" x="0px" y="0px"
	 width="2463.195px" height="515.229px" viewBox="0 0 2463.195 515.229" enable-background="new 0 0 2463.195 515.229"
	 xml:space="preserve">
<polyline fill="#616161" points="1086.246,45.791 1086.246,289.778 1086.246,368.083 1045.66,368.083 1045.66,124.097 
	1045.66,45.791 929.631,45.791 929.631,9.981 1173.625,9.981 1202.273,9.981 1202.273,45.791 1086.246,45.791 "/>
<g>
	<path fill="#616161" d="M1461.74,208.608v-0.955c56.822-7.161,62.551-44.404,62.551-94.538c0-81.647-33.9-103.134-111.254-103.134
		h-165.209v114.115v243.986h40.586V224.842h130.354c49.182,0,60.162,21.964,60.162,67.324v75.917h40.586v-95.017
		C1519.516,234.392,1501.85,211.473,1461.74,208.608z M1413.516,189.032h-125.102V45.791h125.102
		c63.982,0,70.189,17.189,70.189,63.026C1483.705,168.023,1476.066,187.122,1413.516,189.032z"/>
</g>
<g>
	<path fill="#616161" d="M1839.236,253.968L1748.514,9.981h-57.297l-41.541,114.115l-88.812,243.986h42.496l27.693-75.917h180.967
		l28.172,75.917h42.018L1839.236,253.968z M1642.035,258.742l78.785-215.338l79.74,215.338H1642.035z"/>
</g>
<path fill="#616161" d="M2054.625,370.947h-57.299c-65.414,0-104.09-41.062-104.09-112.682V119.799
	c0-101.223,62.551-112.683,149.451-112.683h33.424c74.965,0,97.885,32.468,97.885,103.134v11.459h-40.586v-10.027
	c0-50.133-10.506-68.755-63.027-68.755h-22.92c-84.037,0-113.641,10.026-113.641,75.44v98.358
	c0,81.647,3.342,118.412,71.145,118.412h48.227c64.938,0,84.992-9.072,84.992-60.161v-28.648h40.586v33.424
	C2178.771,361.876,2126.248,370.947,2054.625,370.947"/>
<polyline fill="#616161" points="2268.402,45.791 2268.402,167.546 2449.846,167.546 2449.846,200.969 2268.402,200.969 
	2268.402,332.273 2457.963,332.273 2457.963,368.083 2227.816,368.083 2227.816,124.097 2227.816,9.981 2457.963,9.981 
	2457.963,45.791 2268.402,45.791 "/>
<linearGradient id="SVGID_1_" gradientUnits="userSpaceOnUse" x1="0" y1="37.2227" x2="437.5703" y2="37.2227">
	<stop  offset="0" style="stop-color:#FFFFFF"/>
	<stop  offset="1" style="stop-color:#747FFF"/>
</linearGradient>
<path fill="url(#SVGID_1_)" d="M437.57,20.911c-3.725,4.334-7.449,8.667-10.994,13.144c-3.547,4.475-6.914,9.092-10.281,13.709
	c-16.119,5.93-32.414,11.396-44.848,15.157c-12.436,3.761-21.008,5.814-29.105,7.377c-8.098,1.563-15.719,2.636-23.086,3.305
	s-14.479,0.936-21.637,0.815c-7.158-0.119-14.363-0.625-21.863-1.568c-7.502-0.943-15.299-2.324-23.801-4.267
	c-8.5-1.942-17.705-4.445-28.76-8.063c-11.055-3.619-23.957-8.352-32.756-11.631c-8.797-3.278-13.49-5.104-21.969-8.147
	s-20.744-7.307-31.119-10.458c-10.375-3.152-18.857-5.193-26.943-6.763s-15.775-2.666-23.281-3.361
	c-22.164-2.046-43.811-0.675-65.725,4.224C14.201,25.998,7.041,27.992,0,30.343V11.098C21.506,3.927,43.395,0.251,65.193,0.013
	c7.334-0.081,14.68,0.223,22.209,0.928c7.529,0.706,15.242,1.812,23.336,3.392c8.094,1.58,16.566,3.631,27.047,6.824
	c10.479,3.193,22.965,7.528,35.174,11.97s24.143,8.989,33.783,12.493c9.639,3.504,16.988,5.966,25.016,8.342
	s16.73,4.667,24.92,6.411c8.188,1.745,15.863,2.942,23.273,3.721s14.557,1.138,21.744,1.105c7.189-0.032,14.42-0.456,21.85-1.276
	c7.43-0.821,15.061-2.039,23.432-3.818c8.369-1.778,17.482-4.117,32.736-8.995S416.363,28.812,437.57,20.911"/>
<linearGradient id="SVGID_2_" gradientUnits="userSpaceOnUse" x1="0" y1="166.5947" x2="359.4414" y2="166.5947">
	<stop  offset="0" style="stop-color:#FFFFFF"/>
	<stop  offset="1" style="stop-color:#747FFF"/>
</linearGradient>
<path fill="url(#SVGID_2_)" d="M359.441,176.466c-1.688,6.798-3.238,13.61-4.654,20.436c-7.479,1.861-15.043,3.372-22.414,4.485
	c-14.664,2.201-28.479,2.904-42.449,2.129c-6.949-0.388-13.959-1.15-21.379-2.33s-15.25-2.778-24.012-5.045
	c-8.764-2.267-18.459-5.201-28.822-8.737c-10.365-3.536-21.398-7.674-30.457-11.081c-9.059-3.406-16.143-6.082-25.078-9.188
	c-8.934-3.107-19.719-6.645-29.01-9.278c-9.293-2.633-17.092-4.361-24.689-5.703c-7.6-1.342-14.996-2.297-22.238-2.873
	c-21.408-1.689-42.355-0.178-63.543,4.633c-6.963,1.586-13.885,3.525-20.695,5.8v-19.245c20.789-6.934,41.959-10.6,63.018-11.05
	c7.092-0.153,14.199,0.056,21.467,0.638c7.266,0.582,14.689,1.537,22.402,2.925s15.715,3.206,24.922,5.802
	c9.207,2.598,19.617,5.973,32.088,10.418c12.469,4.443,26.996,9.957,37.152,13.721s15.941,5.779,23.34,8.108
	s16.412,4.974,24.771,7.013s16.066,3.474,23.412,4.502c14.885,2.079,28.205,2.505,42.225,1.543
	C329.057,183.111,344.332,180.52,359.441,176.466"/>
<linearGradient id="SVGID_3_" gradientUnits="userSpaceOnUse" x1="0" y1="295.9619" x2="341.5996" y2="295.9619">
	<stop  offset="0" style="stop-color:#FFFFFF"/>
	<stop  offset="1" style="stop-color:#747FFF"/>
</linearGradient>
<path fill="url(#SVGID_3_)" d="M341.6,309.935c-0.314,6.464-0.576,12.929-0.789,19.395c-14.879,2.784-29.574,4.126-43.979,3.813
	c-7.141-0.148-14.332-0.682-21.824-1.65c-7.492-0.967-15.283-2.369-23.807-4.345c-8.525-1.976-17.783-4.525-28.768-8.136
	c-10.984-3.611-23.695-8.284-32.52-11.578c-8.822-3.294-13.76-5.209-22.289-8.262c-8.531-3.054-20.658-7.245-30.92-10.344
	s-18.658-5.104-26.688-6.647c-8.031-1.544-15.693-2.626-23.176-3.31c-22.096-2.009-43.67-0.624-65.512,4.268
	c-7.178,1.612-14.312,3.6-21.33,5.943v-19.245c19.635-6.553,39.654-10.188,59.529-10.948c6.697-0.257,13.42-0.189,20.25,0.209
	c6.832,0.397,13.771,1.126,20.871,2.218s14.357,2.548,22.393,4.519s16.846,4.456,29.678,8.856
	c12.834,4.401,29.689,10.718,40.48,14.727s15.52,5.71,21.84,7.863s14.232,4.757,22.08,6.99s15.631,4.096,23.002,5.542
	c7.373,1.446,14.336,2.477,21.084,3.147c6.75,0.672,13.285,0.984,19.83,0.978C314.223,313.937,327.846,312.556,341.6,309.935"/>
<linearGradient id="SVGID_4_" gradientUnits="userSpaceOnUse" x1="0" y1="102.668" x2="383.6562" y2="102.668">
	<stop  offset="0" style="stop-color:#FFFFFF"/>
	<stop  offset="1" style="stop-color:#747FFF"/>
</linearGradient>
<path fill="url(#SVGID_4_)" d="M383.656,105.273c-3.254,7.331-6.275,14.715-9.078,22.147c-9.271,2.924-18.678,5.429-27.246,7.292
	c-8.566,1.861-16.293,3.08-23.818,3.904c-7.523,0.822-14.844,1.25-22.156,1.272s-14.617-0.36-22.162-1.19
	c-7.543-0.83-15.326-2.107-23.697-3.887c-8.369-1.779-17.326-4.06-28.717-7.708c-11.393-3.647-25.219-8.664-34.254-12.001
	c-9.033-3.337-13.273-4.994-21.504-7.983c-8.229-2.989-20.447-7.31-30.979-10.582c-10.529-3.272-19.371-5.495-27.697-7.187
	c-8.328-1.692-16.141-2.854-23.777-3.607c-22.539-2.229-44.561-0.934-66.83,4.009C14.426,91.382,7.15,93.4,0,95.788V76.543
	c20.453-6.822,41.287-10.482,62.002-11.025c6.977-0.185,13.973-0.02,21.113,0.508c7.139,0.525,14.424,1.412,21.959,2.713
	c7.535,1.299,15.32,3.012,24.111,5.397c8.791,2.385,18.588,5.442,31.172,9.879c12.582,4.437,27.951,10.251,38.174,14.058
	c10.225,3.807,15.305,5.604,22.377,7.894c7.074,2.289,16.141,5.069,24.541,7.236c8.398,2.167,16.131,3.72,23.49,4.873
	c14.773,2.312,28.033,3.019,41.857,2.324c6.938-0.351,14.018-1.062,21.264-2.136c7.246-1.073,14.656-2.511,23.305-4.675
	C364.014,111.426,373.898,108.535,383.656,105.273"/>
<linearGradient id="SVGID_5_" gradientUnits="userSpaceOnUse" x1="0" y1="232.0366" x2="347.0293" y2="232.0366">
	<stop  offset="0" style="stop-color:#FFFFFF"/>
	<stop  offset="1" style="stop-color:#747FFF"/>
</linearGradient>
<path fill="url(#SVGID_5_)" d="M347.029,244.902c-0.789,6.448-1.504,13.02-2.158,19.702c-15.059,3.085-30.072,4.719-44.758,4.653
	c-7.262-0.027-14.537-0.449-22.066-1.316c-7.529-0.868-15.314-2.182-23.727-4.016s-17.451-4.188-28.73-7.827
	c-11.279-3.638-24.799-8.561-33.678-11.85c-8.879-3.29-13.117-4.946-21.43-7.956c-8.312-3.009-20.699-7.371-31.252-10.632
	c-10.555-3.261-19.275-5.421-27.521-7.07c-8.248-1.649-16.023-2.79-23.619-3.524c-22.416-2.168-44.309-0.847-66.463,4.082
	c-7.275,1.623-14.514,3.634-21.627,6.01v-19.245c20.008-6.676,40.4-10.324,60.658-10.987c6.826-0.225,13.674-0.113,20.646,0.342
	c6.971,0.456,14.068,1.256,21.367,2.441c7.301,1.185,14.801,2.754,23.182,4.912c8.381,2.157,17.643,4.904,30.365,9.326
	c12.723,4.424,28.906,10.523,39.379,14.423s15.234,5.601,21.893,7.819s15.211,4.956,23.367,7.186
	c8.158,2.229,15.918,3.951,23.287,5.266c14.609,2.603,27.783,3.641,41.352,3.32C318.986,249.646,333.023,247.916,347.029,244.902"/>
<linearGradient id="SVGID_6_" gradientUnits="userSpaceOnUse" x1="0" y1="70.854" x2="403.9805" y2="70.854">
	<stop  offset="0" style="stop-color:#FFFFFF"/>
	<stop  offset="1" style="stop-color:#747FFF"/>
</linearGradient>
<path fill="url(#SVGID_6_)" d="M403.98,66.49c-4.744,7.836-9.135,15.778-13.213,23.818c-10.857,3.772-21.857,7.146-31.229,9.635
	c-9.369,2.49-17.111,4.097-24.627,5.307c-14.914,2.392-28.879,3.271-43,2.624c-7.004-0.321-14.068-1.02-21.5-2.137
	c-7.43-1.117-15.229-2.655-23.924-4.839c-8.693-2.184-18.283-5.015-28.834-8.576c-10.549-3.562-22.061-7.855-31.049-11.233
	c-8.99-3.378-15.459-5.843-24.314-8.946c-8.855-3.105-20.098-6.851-29.67-9.615c-9.572-2.766-17.475-4.55-25.16-5.938
	C99.773,55.2,92.299,54.207,84.988,53.6c-21.605-1.781-42.734-0.304-64.111,4.53C13.854,59.725,6.869,61.678,0,63.972V44.727
	c21.029-7.013,42.439-10.684,63.746-11.064c7.172-0.13,14.361,0.109,21.717,0.732s14.881,1.631,22.721,3.081
	c7.84,1.449,15.998,3.342,25.627,6.136c9.631,2.795,20.734,6.491,33.119,10.938s26.051,9.646,36.033,13.328s16.283,5.85,23.92,8.204
	c7.637,2.355,16.611,4.899,24.939,6.845s16.01,3.292,23.346,4.229s14.326,1.466,21.312,1.624s13.967-0.053,21.178-0.653
	c7.211-0.602,14.65-1.592,22.406-3.014c7.758-1.422,15.83-3.274,26.562-6.38C377.357,75.627,390.748,71.27,403.98,66.49"/>
<linearGradient id="SVGID_7_" gradientUnits="userSpaceOnUse" x1="0" y1="200.2207" x2="351.9082" y2="200.2207">
	<stop  offset="0" style="stop-color:#FFFFFF"/>
	<stop  offset="1" style="stop-color:#747FFF"/>
</linearGradient>
<path fill="url(#SVGID_7_)" d="M351.908,211.98c-1.148,6.541-2.197,13.203-3.164,19.971c-7.697,1.72-15.482,3.054-23.088,3.971
	c-7.605,0.916-15.033,1.415-22.424,1.508c-7.389,0.092-14.74-0.223-22.305-0.994s-15.342-1.999-23.648-3.696
	c-8.305-1.696-17.137-3.862-28.701-7.522s-25.859-8.814-35.129-12.223s-13.512-5.07-21.615-8.028s-20.066-7.214-30.561-10.501
	s-19.516-5.605-27.963-7.361c-8.447-1.757-16.316-2.95-24.018-3.733c-22.721-2.323-44.936-1.066-67.383,3.897
	c-7.373,1.636-14.705,3.667-21.91,6.073v-19.245c20.32-6.778,41.023-10.436,61.604-11.016c6.932-0.196,13.883-0.047,20.973,0.458
	s14.318,1.365,21.785,2.631c7.465,1.266,15.166,2.937,23.834,5.253c8.67,2.317,18.309,5.281,30.934,9.714
	c12.627,4.433,28.24,10.334,38.449,14.14c10.209,3.805,15.016,5.515,21.963,7.786s16.035,5.104,24.451,7.321
	c8.416,2.216,16.158,3.815,23.52,5.016c14.729,2.4,27.961,3.207,41.711,2.625C323.008,217.446,337.51,215.392,351.908,211.98"/>
<linearGradient id="SVGID_8_" gradientUnits="userSpaceOnUse" x1="0" y1="329.5918" x2="340.4395" y2="329.5918">
	<stop  offset="0" style="stop-color:#FFFFFF"/>
	<stop  offset="1" style="stop-color:#747FFF"/>
</linearGradient>
<path fill="url(#SVGID_8_)" d="M340.439,343.783c-0.119,6.428-0.189,12.855-0.209,19.283c-14.836,2.74-29.49,4.041-43.861,3.695
	c-7.129-0.166-14.309-0.715-21.795-1.696c-7.486-0.982-15.277-2.397-23.818-4.394c-8.541-1.995-17.828-4.571-28.771-8.178
	c-10.943-3.607-23.541-8.244-32.379-11.547c-8.84-3.303-13.92-5.271-22.482-8.329c-8.562-3.06-20.605-7.208-30.801-10.275
	c-10.197-3.066-18.547-5.051-26.545-6.58c-7.998-1.528-15.645-2.603-23.111-3.278c-22.047-1.988-43.58-0.594-65.379,4.292
	c-7.162,1.61-14.283,3.596-21.287,5.934v-19.245c21.086-7.031,42.551-10.702,63.914-11.066c7.191-0.125,14.398,0.122,21.777,0.755
	c7.377,0.633,14.924,1.652,22.793,3.117c7.871,1.464,16.062,3.374,25.791,6.214c9.729,2.841,20.994,6.611,33.357,11.06
	c12.365,4.447,25.83,9.571,35.773,13.234c9.941,3.663,16.363,5.864,24.057,8.226c7.693,2.36,16.658,4.88,24.969,6.802
	c8.312,1.922,15.971,3.246,23.305,4.163c7.334,0.916,14.344,1.425,21.346,1.562C311.186,347.821,325.734,346.515,340.439,343.783"/>
<linearGradient id="SVGID_9_" gradientUnits="userSpaceOnUse" x1="0" y1="136.2969" x2="368.9277" y2="136.2969">
	<stop  offset="0" style="stop-color:#FFFFFF"/>
	<stop  offset="1" style="stop-color:#747FFF"/>
</linearGradient>
<path fill="url(#SVGID_9_)" d="M368.928,143.514c-2.258,6.919-4.373,13.941-6.359,21.059c-7.895,2.209-15.896,4.046-23.633,5.439
	c-15.299,2.732-29.512,3.84-43.863,3.424c-7.094-0.211-14.24-0.804-21.709-1.826c-7.471-1.022-15.266-2.475-23.85-4.525
	c-8.586-2.051-17.963-4.701-28.791-8.296c-10.826-3.594-23.105-8.132-31.986-11.458c-8.883-3.326-14.369-5.441-23.018-8.514
	c-8.648-3.073-20.459-7.105-30.473-10.084c-10.016-2.979-18.236-4.904-26.143-6.392c-7.908-1.488-15.504-2.538-22.926-3.193
	c-21.92-1.927-43.334-0.508-65.01,4.362c-7.121,1.606-14.203,3.582-21.168,5.908v-19.246c19.865-6.628,40.113-10.271,60.227-10.973
	c6.775-0.236,13.574-0.143,20.492,0.291c6.92,0.433,13.957,1.205,21.18,2.354c7.223,1.149,14.629,2.676,22.879,4.762
	c8.248,2.086,17.338,4.73,30.104,9.146c12.766,4.415,29.207,10.601,39.803,14.543c10.596,3.943,15.346,5.643,21.873,7.838
	c6.525,2.194,14.83,4.883,22.867,7.115c8.037,2.231,15.807,4.006,23.178,5.371c14.555,2.691,27.699,3.837,41.186,3.633
	c6.658-0.102,13.363-0.537,20.242-1.309c6.881-0.773,13.938-1.883,21.467-3.455C353.025,147.917,361.027,145.883,368.928,143.514"/>
<linearGradient id="SVGID_10_" gradientUnits="userSpaceOnUse" x1="0" y1="265.667" x2="343.5664" y2="265.667">
	<stop  offset="0" style="stop-color:#FFFFFF"/>
	<stop  offset="1" style="stop-color:#747FFF"/>
</linearGradient>
<path fill="url(#SVGID_10_)" d="M343.566,279.254c-0.514,6.411-0.965,12.919-1.361,19.514c-14.977,2.891-29.775,4.331-44.258,4.1
	c-7.172-0.108-14.393-0.603-21.898-1.535c-7.504-0.935-15.293-2.308-23.779-4.235s-17.668-4.41-28.754-8.03
	c-11.084-3.621-24.072-8.38-32.859-11.652c-8.785-3.272-13.373-5.059-21.83-8.099c-8.455-3.04-20.781-7.333-31.197-10.507
	c-10.418-3.175-18.926-5.23-27.033-6.811c-8.107-1.579-15.814-2.683-23.336-3.383c-22.205-2.062-43.879-0.698-65.828,4.205
	c-7.211,1.617-14.381,3.612-21.432,5.967v-19.245c19.77-6.597,39.924-10.237,59.938-10.964c6.744-0.244,13.512-0.161,20.395,0.257
	c6.881,0.419,13.879,1.173,21.051,2.298s14.518,2.623,22.678,4.66c8.16,2.038,17.135,4.617,29.928,9.027
	c12.795,4.41,29.408,10.65,40.084,14.621c10.678,3.971,15.418,5.671,21.859,7.848c6.441,2.178,14.582,4.832,22.541,7.064
	c7.957,2.234,15.732,4.045,23.104,5.443c7.371,1.399,14.338,2.385,21.111,3.011c6.773,0.625,13.352,0.889,19.963,0.827
	C315.947,283.521,329.721,282.014,343.566,279.254"/>
<polyline fill="#FFFFFF" points="628.408,0.312 686.01,0.312 686.01,372.68 628.408,372.68 628.408,0.312 "/>
<path fill="#FFFFFF" d="M785.186,254.178V372.68h-55.221V0.312h9.039c8.682,0,17.363,0.312,25.672,0.899
	c8.307,0.588,16.24,1.454,23.562,2.541c7.32,1.086,14.031,2.393,20.373,3.904c6.344,1.513,12.322,3.23,17.945,5.131
	c5.625,1.899,10.896,3.98,15.836,6.217c4.941,2.236,9.551,4.628,13.863,7.161c4.312,2.534,8.326,5.21,12.072,8.02
	s7.221,5.755,10.447,8.826s6.201,6.271,8.947,9.604c2.744,3.333,5.258,6.799,7.557,10.413c2.297,3.613,4.379,7.375,6.238,11.28
	c1.861,3.905,3.5,7.954,4.912,12.164c1.41,4.21,2.592,8.579,3.549,13.187c0.959,4.605,1.691,9.447,2.172,14.499
	c0.965,9.946,0.883,21.097-0.299,31.847c-0.578,5.292-1.402,10.383-2.426,15.08c-1.025,4.698-2.252,9.002-3.689,13.114
	c-1.439,4.113-3.092,8.034-4.959,11.814c-1.867,3.779-3.949,7.417-6.264,10.925s-4.863,6.886-7.65,10.146
	c-2.785,3.259-5.809,6.399-9.104,9.427s-6.861,5.94-10.844,8.814c-3.984,2.873-8.385,5.708-13.221,8.476
	c-4.838,2.769-10.109,5.47-15.494,7.923c2.77,6.5,5.996,12.807,9.568,18.723c3.574,5.915,7.492,11.438,11.666,16.471
	c4.174,5.033,8.604,9.575,13.318,13.7s9.717,7.833,15.023,11.182s10.92,6.338,16.785,8.778c5.863,2.44,11.98,4.332,15.934,5.511
	s5.742,1.643,7.555,2.013v56.411c-12.525-2.679-24.881-6.205-35.35-10.013c-10.471-3.807-19.053-7.896-27.059-12.352
	c-8.004-4.455-15.43-9.276-22.342-14.56c-6.91-5.284-13.309-11.029-19.203-17.187c-5.896-6.157-11.291-12.726-16.158-19.687
	s-9.207-14.313-13.018-22.102C791.113,270.824,787.832,262.6,785.186,254.178 M785.186,206.319c4.322-0.604,8.615-1.425,12.74-2.433
	c4.125-1.009,8.086-2.203,11.729-3.516c3.643-1.313,6.969-2.746,10.049-4.296c3.082-1.55,5.918-3.217,8.574-5.009
	c2.656-1.791,5.133-3.706,7.422-5.736c2.289-2.029,4.393-4.172,6.318-6.429c1.928-2.257,3.678-4.627,5.256-7.106
	c1.58-2.479,2.99-5.068,4.23-7.784s2.311-5.557,3.217-8.585s1.648-6.244,2.201-9.604c1.123-6.807,1.426-14.154,0.885-21.399
	c-0.271-3.669-0.756-7.324-1.406-10.766c-0.652-3.44-1.473-6.669-2.457-9.704c-0.986-3.036-2.137-5.88-3.447-8.587
	c-1.312-2.706-2.785-5.276-4.426-7.732c-1.641-2.457-3.451-4.801-5.426-7.018c-1.977-2.218-4.117-4.308-6.42-6.265
	c-2.305-1.956-4.771-3.777-7.42-5.473s-5.479-3.264-8.488-4.685c-3.01-1.42-6.199-2.691-9.662-3.823s-7.195-2.123-11.148-2.938
	s-8.127-1.452-12.32-1.873V206.319"/>
<path fill="#747FFF" d="M396.299,365.547c0.477-36.668,1.904-72.383,5.715-107.146h140.482c3.811,34.763,5.238,70.478,5.715,107.146
	h42.859c0-168.575-31.43-283.815-118.576-363.816c-87.148,80.001-119.055,195.241-119.055,363.816H396.299 M408.68,219.354
	c10.002-58.572,27.621-110.479,63.814-159.051c36.191,48.572,53.811,100.479,63.812,159.051H408.68"/>
<polyline fill="#747FFF" points="635.541,365.547 678.877,365.547 678.877,122.209 678.877,7.444 635.541,7.444 635.541,250.783 
	635.541,365.547 "/>
<path fill="#747FFF" d="M778.053,365.547V122.209V47.922c55.24,2.381,87.146,34.286,87.146,83.334
	c0,45.716-29.049,75.717-80.955,82.383c7.619,77.621,57.621,133.336,136.672,151.908v-41.906
	c-42.383-10.952-74.766-40.477-91.908-85.716c52.859-21.905,76.67-55.715,76.67-110.001c0-75.717-57.621-120.479-166.674-120.479
	h-1.906v243.339v114.764H778.053"/>
<path fill="#616161" d="M404.461,467.732h-9.918c0-9.42-1.785-10.907-13.59-10.907c-13.688,0-16.365,1.587-16.365,9.816
	c0,5.95,1.289,8.429,4.859,9.52c1.787,0.595,2.777,0.694,12.797,1.19c12.002,0.595,15.77,1.388,18.846,3.867
	c3.371,2.775,4.76,6.742,4.76,14.179c0,8.23-0.99,12.594-3.768,15.37c-3.77,3.966-8.631,5.057-23.012,5.057
	c-8.729,0-12.498-0.396-15.672-1.487c-5.258-1.884-7.936-5.553-8.828-12.097c-0.299-2.182-0.299-2.678-0.396-7.734h9.918v1.486
	c0,5.752,0.893,8.528,3.373,10.016c1.785,1.189,3.967,1.389,13.092,1.389c13.49,0,15.275-1.389,15.275-11.701
	c0-5.156-1.092-7.438-4.066-8.527c-1.092-0.396-3.174-0.694-5.754-0.793l-2.479-0.199l-2.381-0.099l-2.48-0.198
	c-8.232-0.396-8.926-0.496-11.01-0.793c-9.322-1.488-13.191-6.545-13.191-17.056c0-15.767,4.861-19.534,25.393-19.534
	c10.713,0,15.176,0.694,18.846,3.074c3.867,2.479,5.752,7.04,5.752,14.08V467.732"/>
<polyline fill="#616161" points="531.957,449.091 531.957,499.761 531.957,515.229 521.84,515.229 521.84,485.779 487.223,485.779 
	487.223,515.229 477.105,515.229 477.105,464.56 477.105,449.091 487.223,449.091 487.223,477.152 521.84,477.152 521.84,449.091 
	531.957,449.091 "/>
<polyline fill="#616161" points="614.58,457.619 614.58,477.352 646.816,477.352 646.816,485.185 614.58,485.185 614.58,506.702 
	648.502,506.702 648.502,515.229 604.463,515.229 604.463,464.56 604.463,449.091 648.305,449.091 648.305,457.619 614.58,457.619 
	"/>
<polyline fill="#616161" points="730.48,457.619 730.48,477.352 762.717,477.352 762.717,485.185 730.48,485.185 730.48,506.702 
	764.404,506.702 764.404,515.229 720.363,515.229 720.363,464.56 720.363,449.091 764.205,449.091 764.205,457.619 730.48,457.619 
	"/>
<polyline fill="#616161" points="866.049,458.213 866.049,508.883 866.049,515.229 855.932,515.229 855.932,464.56 855.932,458.213 
	835.697,458.213 835.697,449.091 886.383,449.091 886.58,449.091 886.58,458.213 866.049,458.213 "/>
<path fill="#616161" d="M1120.764,449.091v50.67v15.469h-10.018v-44.126c0-3.371,0-4.561,0.197-9.32l0.1-1.189v-1.19l0.1-1.19v-1.09
	h-0.297c-2.68,8.031-3.473,10.411-4.365,12.395l-18.35,45.712h-9.521l-18.549-45.216c-0.793-1.983-1.289-3.272-2.977-8.33
	l-0.396-0.991l-0.396-1.091l-0.297-0.991l-0.396-1.091h-0.199v1.189c0.1,1.19,0.1,2.182,0.1,2.182
	c0.297,6.148,0.297,6.941,0.297,10.213v44.126h-10.018v-50.67v-15.469h16.764l14.68,36.49c1.09,2.776,1.686,4.363,3.967,10.809
	l0.496,1.289l0.396,1.388l0.496,1.289l0.496,1.389h0.297l0.496-1.389l0.496-1.289l0.396-1.388l0.496-1.289
	c2.182-6.347,2.877-8.132,3.869-10.809l14.58-36.49H1120.764"/>
<polyline fill="#616161" points="1203.535,457.619 1203.535,477.352 1235.771,477.352 1235.771,485.185 1203.535,485.185 
	1203.535,506.702 1237.457,506.702 1237.457,515.229 1193.418,515.229 1193.418,464.56 1193.418,449.091 1237.26,449.091 
	1237.26,457.619 1203.535,457.619 "/>
<polyline fill="#616161" points="1339.102,458.213 1339.102,508.883 1339.102,515.229 1328.984,515.229 1328.984,464.56 
	1328.984,458.213 1308.75,458.213 1308.75,449.091 1359.436,449.091 1359.635,449.091 1359.635,458.213 1339.102,458.213 "/>
<g>
	<path fill="#616161" d="M1465.725,499.761l-17.854-50.67h-14.779l-5.455,15.469l-17.654,50.67h10.711l4.562-13.287h30.848
		l4.662,13.287h10.514L1465.725,499.761z M1427.836,494.208l12.795-37.185l12.994,37.185H1427.836z"/>
</g>
<polyline fill="#616161" points="1552.189,449.091 1552.189,499.761 1552.189,506.107 1584.625,506.107 1584.625,515.229 
	1542.072,515.229 1542.072,464.56 1542.072,449.091 1552.189,449.091 "/>
<polyline fill="#616161" points="1753.84,449.091 1753.84,499.761 1753.84,506.107 1786.273,506.107 1786.273,515.229 
	1743.723,515.229 1743.723,464.56 1743.723,449.091 1753.84,449.091 "/>
<polyline fill="#616161" points="1867.674,449.091 1867.674,499.761 1867.674,515.229 1857.557,515.229 1857.557,464.56 
	1857.557,449.091 1867.674,449.091 "/>
<path fill="#616161" d="M2015.711,449.091v50.67v15.469h-10.02v-44.126c0-3.371,0-4.561,0.199-9.32l0.1-1.189v-1.19l0.1-1.19v-1.09
	h-0.299c-2.678,8.031-3.471,10.411-4.363,12.395l-18.352,45.712h-9.521l-18.547-45.216c-0.795-1.983-1.291-3.272-2.977-8.33
	l-0.396-0.991l-0.396-1.091l-0.299-0.991l-0.396-1.091h-0.197v1.189c0.1,1.19,0.1,2.182,0.1,2.182
	c0.297,6.148,0.297,6.941,0.297,10.213v44.126h-10.018v-50.67v-15.469h16.762l14.68,36.49c1.092,2.776,1.688,4.363,3.969,10.809
	l0.496,1.289l0.396,1.388l0.496,1.289l0.496,1.389h0.297l0.496-1.389l0.496-1.289l0.396-1.388l0.496-1.289
	c2.182-6.347,2.875-8.132,3.867-10.809l14.582-36.49H2015.711"/>
<polyline fill="#616161" points="2097.279,449.091 2097.279,499.761 2097.279,515.229 2087.162,515.229 2087.162,464.56 
	2087.162,449.091 2097.279,449.091 "/>
<polyline fill="#616161" points="2199.85,458.213 2199.85,508.883 2199.85,515.229 2189.732,515.229 2189.732,464.56 
	2189.732,458.213 2169.498,458.213 2169.498,449.091 2220.184,449.091 2220.383,449.091 2220.383,458.213 2199.85,458.213 "/>
<polyline fill="#616161" points="2301.256,457.619 2301.256,477.352 2333.49,477.352 2333.49,485.185 2301.256,485.185 
	2301.256,506.702 2335.178,506.702 2335.178,515.229 2291.137,515.229 2291.137,464.56 2291.137,449.091 2334.979,449.091 
	2334.979,457.619 2301.256,457.619 "/>
<g>
	<path fill="#616161" d="M2438.498,449.091h-31.543v15.469v50.67h32.732c9.918,0,16.664-3.173,20.234-9.52
		c2.678-4.759,3.273-10.114,3.273-27.863C2463.195,456.23,2457.045,449.091,2438.498,449.091z M2436.713,506.504h-19.641v-48.588
		h20.73c6.547,0,10.018,1.189,12.102,4.065c2.479,3.372,3.074,7.14,3.074,20.724C2452.979,502.735,2450.4,506.504,2436.713,506.504z
		"/>
</g>
</svg>
