<?xml version="1.0" encoding="utf-8"?>
<!-- Generator: Adobe Illustrator 19.1.0, SVG Export Plug-In . SVG Version: 6.00 Build 0)  -->
<svg version="1.1" id="Layer_1" xmlns="http://www.w3.org/2000/svg" xmlns:xlink="http://www.w3.org/1999/xlink" x="0px" y="0px"
	 viewBox="-119 321 960 560" style="enable-background:new -119 321 960 560;" xml:space="preserve">
<style type="text/css">
	.st0{fill:#1E22AA;fill-opacity:0;}
	.st1{fill:#1E22AA;}
</style>
<g id="insideCircle">
	<path class="st0" d="M736.1,540.5c-48.4,0-87.8,39.4-87.8,87.8s39.4,87.8,87.8,87.8s87.8-39.4,87.8-87.8S784.5,540.5,736.1,540.5z"
		/>
</g>
<g id="Calico">
	<path class="st1" d="M-112.4,631.2c0,51.1,36,88.7,85.9,88.7c15.1,0,29.1-3.5,43.8-10.6v-50.4C5,672.6-6.8,679.2-21.8,679.2
		c-27,0-44.5-21.1-44.5-47.1c0-28.6,17.8-49,44.5-49c14.9,0,26.7,6.6,39.1,20.3V553c-14.7-7.1-28.7-10.7-43.8-10.7
		C-76.4,542.5-112.4,580.1-112.4,631.2"/>
	<rect x="200.3" y="536.6" class="st1" width="41.1" height="178.8"/>
	<path class="st1" d="M332.8,657.3c0,38.7,25.8,62.6,60.3,62.6c10.9,0,20.6-2.8,30-8v-35.7c-6.9,7.1-13.5,10.2-22.2,10.2
		c-17.3,0-27.7-11.8-27.7-29.3c0-18.9,10.9-30,26.7-30c8.3,0,15.4,3.3,23.2,10.2v-34.7c-9.2-5.4-18.4-7.3-29.5-7.3
		C358.1,595.2,332.8,620.7,332.8,657.3"/>
	<path class="st1" d="M510.6,685.5c-15.1,0-24.3-10.6-24.3-27.9c0-17.2,9.2-28.1,24.3-28.1s24.4,10.9,24.4,28.1
		C535,674.8,525.7,685.5,510.6,685.5z M510.6,595.2c-36.9,0-65,27.9-65,62.4c0,34.3,27.9,62.4,65,62.4c36.9,0,65.3-27.9,65.3-62.4
		C575.9,623.1,547.5,595.2,510.6,595.2z"/>
	<rect x="269.1" y="599" class="st1" width="41.1" height="116.5"/>
	<path class="st1" d="M289.7,536.6c-12.5,0-22.7,10.4-22.7,22.7c0,12.1,9.9,22.9,22.7,22.9c12.3,0,22.7-10.2,22.7-22.9
		C312.4,546.5,302.2,536.6,289.7,536.6"/>
	<path class="st1" d="M591.2,565.9c-0.9,2-2,3.8-3.5,5.3s-3.3,2.7-5.3,3.6c-2,0.9-4.2,1.3-6.5,1.3s-4.5-0.4-6.5-1.3
		c-2-0.9-3.8-2.1-5.3-3.6s-2.7-3.3-3.6-5.3c-0.9-2-1.3-4.2-1.3-6.5c0-2.3,0.4-4.5,1.3-6.5c0.9-2,2.1-3.8,3.6-5.3s3.3-2.7,5.3-3.5
		c2-0.9,4.2-1.3,6.5-1.3s4.5,0.4,6.5,1.3s3.8,2,5.3,3.5s2.7,3.3,3.5,5.3c0.9,2,1.3,4.2,1.3,6.5C592.6,561.7,592.1,563.9,591.2,565.9
		z M593.4,552c-1-2.3-2.4-4.3-4.1-6c-1.7-1.7-3.7-3.1-6-4.1s-4.8-1.5-7.4-1.5c-2.6,0-5.1,0.5-7.4,1.5c-2.3,1-4.4,2.4-6.1,4.1
		c-1.7,1.7-3.1,3.7-4.1,6s-1.5,4.8-1.5,7.4c0,2.6,0.5,5.1,1.5,7.4s2.4,4.4,4.1,6.1c1.7,1.7,3.7,3.1,6.1,4.1c2.3,1,4.8,1.5,7.4,1.5
		c2.6,0,5.1-0.5,7.4-1.5c2.3-1,4.3-2.4,6-4.1c1.7-1.7,3.1-3.7,4.1-6.1c1-2.3,1.5-4.8,1.5-7.4C594.9,556.7,594.4,554.3,593.4,552z"/>
	<path class="st1" d="M577.9,558.3c-0.9,0-1.7,0-2.4,0h-4.1v-6.5h6.2c0.6,0,1.3,0,1.9,0.1c0.7,0.1,1.3,0.2,1.8,0.4s1,0.5,1.3,0.9
		c0.3,0.4,0.5,0.9,0.5,1.6c0,1-0.3,1.7-0.8,2.2s-1.2,0.8-1.9,1C579.6,558.2,578.8,558.3,577.9,558.3z M583.6,559.2
		c0.6-0.4,1.1-1,1.4-1.7c0.3-0.7,0.5-1.6,0.5-2.6c0-1.7-0.5-3.1-1.6-4c-1.1-1-3-1.5-5.8-1.5H569v20.8h2.4v-9.6h4.9l6,9.6h3.1
		l-6.3-9.6c0.9,0,1.8-0.2,2.6-0.4C582.3,560,583,559.7,583.6,559.2z"/>
	<path class="st1" d="M107.7,687c-16.8,0-27-11.1-27-29.3c0-18,10.2-29.5,27-29.5h2.2c16.8,0,24.9,11.6,24.9,29.5
		C134.9,675.9,124.5,687,107.7,687z M134.9,618.2c-9.2-15.8-21.7-23-39.1-23c-33.1,0-53.9,24.3-53.9,62.1
		c0,38.5,20.8,62.6,51.3,62.6c18.4,0,30.9-7,41.7-23.2v18.7h38V599h-38V618.2z"/>
	<path class="st1" d="M736.1,540.5c-48.4,0-87.8,39.4-87.8,87.8s39.4,87.8,87.8,87.8s87.8-39.4,87.8-87.8S784.5,540.5,736.1,540.5z
		 M736.1,725.1c-53.4,0-96.8-43.4-96.8-96.8c0-53.4,43.4-96.8,96.8-96.8c53.4,0,96.8,43.4,96.8,96.8
		C832.9,681.7,789.5,725.1,736.1,725.1z"/>
	<polyline class="st1" points="682.1,656.3 722.9,632.8 682.1,609.3 682.1,656.3 	"/>
	<polyline class="st1" points="751.9,593.6 711.1,617.2 751.9,640.7 751.9,593.6 	"/>
	<polyline class="st1" points="730.6,662.2 752.1,649.7 730.6,637.2 730.6,662.2 	"/>
	<path class="st1" d="M779.9,637.5c-2.5,0-4.6-2.1-4.6-4.6s2.1-4.6,4.6-4.6s4.6,2.1,4.6,4.6C784.5,635.5,782.5,637.5,779.9,637.5z
		 M759.6,609.3v47.1l40.8-23.5L759.6,609.3z"/>
	<path class="st1" d="M-76.3,829c-0.8,1.6-1.9,3-3.3,4.1s-3,2-5,2.7c-1.9,0.6-4.1,1-6.4,1c-3.8,0-7.3-0.6-10.3-1.9
		c-3.1-1.3-6-3.2-8.9-5.7l2.3-2.7c1.3,1.2,2.6,2.3,3.9,3.2s2.6,1.6,4,2.2c1.4,0.6,2.8,1,4.3,1.3s3.1,0.4,4.9,0.4
		c1.8,0,3.4-0.2,4.9-0.7s2.8-1.1,3.8-2c1-0.8,1.9-1.8,2.5-3s0.9-2.4,0.9-3.8V824c0-1.3-0.2-2.4-0.6-3.4s-1.1-1.9-2.1-2.7
		s-2.4-1.6-4.1-2.2c-1.7-0.7-4-1.3-6.7-1.8c-2.9-0.6-5.3-1.3-7.4-2.1c-2-0.8-3.7-1.7-5-2.8c-1.3-1.1-2.2-2.3-2.8-3.7
		c-0.6-1.4-0.9-3-0.9-4.9v-0.1c0-1.8,0.4-3.4,1.2-5c0.8-1.5,1.8-2.9,3.2-4c1.4-1.1,3-2,4.8-2.7c1.9-0.6,3.9-1,6.1-1
		c3.5,0,6.4,0.5,9,1.4s5,2.4,7.4,4.4l-2.3,2.8c-2.3-2-4.6-3.4-6.9-4.2c-2.3-0.8-4.8-1.2-7.4-1.2c-1.8,0-3.4,0.2-4.8,0.7
		s-2.7,1.1-3.7,2c-1,0.8-1.8,1.8-2.4,2.9c-0.5,1.1-0.8,2.3-0.8,3.5v0.1c0,1.3,0.2,2.4,0.6,3.5c0.4,1,1.1,2,2.1,2.8
		c1,0.8,2.4,1.6,4.3,2.3c1.8,0.7,4.1,1.3,7,1.9c5.5,1.1,9.5,2.7,12,4.8c2.5,2.1,3.7,4.9,3.7,8.4v0.1
		C-75.1,825.6-75.5,827.4-76.3,829"/>
	<path class="st1" d="M-35.6,817c-0.1-1.8-0.5-3.5-1.1-5.1c-0.6-1.6-1.4-3.1-2.4-4.3c-1-1.3-2.3-2.3-3.8-3c-1.5-0.8-3.3-1.1-5.3-1.1
		c-1.7,0-3.4,0.3-4.9,1s-2.8,1.6-3.9,2.8c-1.1,1.2-2,2.6-2.8,4.3c-0.7,1.7-1.2,3.5-1.3,5.4H-35.6L-35.6,817z M-59.6,825.8
		c0.8,1.7,1.8,3.1,3.1,4.3c1.2,1.2,2.6,2.1,4.2,2.7c1.6,0.6,3.2,0.9,5,0.9c2.7,0,5-0.5,6.9-1.6c1.9-1,3.6-2.3,5-3.9l2.3,2.1
		c-1.8,1.9-3.8,3.5-6,4.8c-2.3,1.3-5,1.9-8.4,1.9c-2.3,0-4.5-0.4-6.5-1.3c-2.1-0.9-3.9-2.1-5.5-3.7s-2.8-3.5-3.7-5.7
		c-0.9-2.2-1.4-4.7-1.4-7.5v-0.1c0-2.5,0.4-4.9,1.3-7.1c0.8-2.2,2-4.1,3.5-5.8c1.5-1.6,3.2-2.9,5.2-3.9c2-1,4.2-1.4,6.5-1.4
		c2.5,0,4.7,0.5,6.6,1.4c2,0.9,3.6,2.2,5,3.9c1.4,1.6,2.5,3.6,3.2,5.8s1.1,4.6,1.1,7.2v0.1v0.6c0,0.1,0,0.3-0.1,0.6H-61
		C-60.9,822.2-60.4,824.1-59.6,825.8z"/>
	<path class="st1" d="M6.2,817c-0.1-1.8-0.5-3.5-1.1-5.1c-0.6-1.6-1.4-3.1-2.4-4.3c-1-1.3-2.3-2.3-3.8-3c-1.5-0.8-3.3-1.1-5.3-1.1
		c-1.7,0-3.4,0.3-4.9,1s-2.8,1.6-3.9,2.8s-2,2.6-2.8,4.3c-0.7,1.7-1.2,3.5-1.3,5.4H6.2L6.2,817z M-17.8,825.8
		c0.8,1.7,1.8,3.1,3.1,4.3c1.2,1.2,2.6,2.1,4.2,2.7c1.6,0.6,3.2,0.9,5,0.9c2.7,0,5-0.5,6.9-1.6c1.9-1,3.6-2.3,5-3.9l2.3,2.1
		c-1.8,1.9-3.8,3.5-6,4.8c-2.3,1.3-5,1.9-8.4,1.9c-2.3,0-4.5-0.4-6.5-1.3c-2.1-0.9-3.9-2.1-5.5-3.7s-2.8-3.5-3.7-5.7
		c-0.9-2.2-1.4-4.7-1.4-7.5v-0.1c0-2.5,0.4-4.9,1.3-7.1c0.8-2.2,2-4.1,3.5-5.8c1.5-1.6,3.2-2.9,5.2-3.9s4.2-1.4,6.5-1.4
		c2.5,0,4.7,0.5,6.6,1.4c2,0.9,3.6,2.2,5,3.9c1.4,1.6,2.5,3.6,3.2,5.8c0.7,2.2,1.1,4.6,1.1,7.2v0.1v0.6c0,0.1,0,0.3-0.1,0.6h-28.7
		C-19.1,822.2-18.6,824.1-17.8,825.8z"/>
	<path class="st1" d="M47.9,836.1v-20.7c0-3.6-1-6.5-2.9-8.7s-4.6-3.2-8.2-3.2c-1.7,0-3.3,0.3-4.8,0.9c-1.5,0.6-2.7,1.5-3.8,2.6
		s-1.9,2.4-2.6,3.9c-0.6,1.5-0.9,3.2-0.9,5v20.2h-3.3v-34.9h3.3v6.5c1.2-2.1,2.8-3.8,4.8-5.2c2-1.4,4.6-2.1,7.8-2.1
		c2.2,0,4.1,0.4,5.9,1.1c1.7,0.7,3.2,1.7,4.4,3c1.2,1.3,2.1,2.8,2.7,4.5c0.6,1.8,0.9,3.7,0.9,5.8v21.4L47.9,836.1"/>
	<rect x="64.6" y="830.3" class="st1" width="4.5" height="5.8"/>
	<polyline class="st1" points="140.3,836.1 140.3,813.6 109.8,813.6 109.8,836.1 106.2,836.1 106.2,788.2 109.8,788.2 109.8,810.4 
		140.3,810.4 140.3,788.2 143.9,788.2 143.9,836.1 140.3,836.1 	"/>
	<path class="st1" d="M185.8,817c-0.1-1.8-0.5-3.5-1.1-5.1c-0.6-1.6-1.4-3.1-2.4-4.3c-1-1.3-2.3-2.3-3.8-3c-1.5-0.8-3.3-1.1-5.3-1.1
		c-1.7,0-3.4,0.3-4.9,1s-2.8,1.6-3.9,2.8s-2,2.6-2.8,4.3c-0.7,1.7-1.2,3.5-1.3,5.4H185.8L185.8,817z M161.9,825.8
		c0.8,1.7,1.8,3.1,3.1,4.3s2.6,2.1,4.2,2.7c1.6,0.6,3.2,0.9,5,0.9c2.7,0,5-0.5,6.9-1.6c1.9-1,3.6-2.3,5-3.9l2.3,2.1
		c-1.8,1.9-3.8,3.5-6,4.8c-2.3,1.3-5,1.9-8.4,1.9c-2.3,0-4.5-0.4-6.5-1.3c-2.1-0.9-3.9-2.1-5.5-3.7s-2.8-3.5-3.7-5.7
		c-0.9-2.2-1.4-4.7-1.4-7.5v-0.1c0-2.5,0.4-4.9,1.3-7.1c0.8-2.2,2-4.1,3.5-5.8c1.5-1.6,3.2-2.9,5.2-3.9s4.2-1.4,6.5-1.4
		c2.5,0,4.7,0.5,6.6,1.4c2,0.9,3.6,2.2,5,3.9c1.4,1.6,2.5,3.6,3.2,5.8c0.8,2.2,1.1,4.6,1.1,7.2v0.1v0.6c0,0.1,0,0.3-0.1,0.6h-28.8
		C160.6,822.2,161.1,824.1,161.9,825.8z"/>
	<path class="st1" d="M225.1,819c-1.5-0.4-3.2-0.7-5.1-1.1c-2-0.3-4.2-0.5-6.7-0.5c-3.7,0-6.5,0.7-8.5,2.2s-3,3.4-3,5.9v0.1
		c0,1.3,0.3,2.4,0.8,3.4s1.3,1.8,2.2,2.5c0.9,0.7,2,1.2,3.2,1.6c1.2,0.4,2.5,0.5,3.8,0.5c1.8,0,3.5-0.3,5-0.8c1.6-0.5,3-1.2,4.2-2.2
		c1.2-0.9,2.2-2.1,2.9-3.4c0.7-1.3,1.1-2.8,1.1-4.4V819H225.1z M225,836.1v-5.8c-0.6,0.8-1.3,1.6-2.1,2.4c-0.8,0.8-1.8,1.5-2.9,2.1
		c-1.1,0.6-2.3,1.1-3.7,1.5c-1.4,0.4-2.9,0.6-4.5,0.6s-3.2-0.2-4.8-0.7c-1.6-0.5-3-1.1-4.3-2.1c-1.3-0.9-2.3-2.1-3.1-3.4
		c-0.8-1.4-1.2-3-1.2-4.8v-0.1c0-1.8,0.4-3.4,1.1-4.9c0.8-1.4,1.8-2.6,3.1-3.6c1.3-1,2.9-1.7,4.8-2.2s3.9-0.8,6.2-0.8
		c2.5,0,4.6,0.1,6.3,0.4c1.8,0.3,3.5,0.6,5.2,1.1v-1.5c0-3.5-1-6.2-3-8s-4.8-2.7-8.4-2.7c-2.1,0-4.1,0.3-5.9,0.8s-3.5,1.2-5,2
		l-1.2-2.9c1.9-0.9,3.8-1.7,5.8-2.2c2-0.6,4.1-0.8,6.5-0.8c4.5,0,8,1.1,10.6,3.4s3.9,5.7,3.9,10.3V836H225V836.1z"/>
	<path class="st1" d="M260.8,804.3c-2,0-3.9,0.4-5.7,1.1c-1.8,0.8-3.4,1.9-4.8,3.4s-2.5,3.3-3.3,5.5s-1.2,4.7-1.2,7.5v14.3h-3.3
		v-34.9h3.3v9.9c0.7-1.6,1.5-3,2.6-4.3c1-1.3,2.2-2.5,3.5-3.4c1.3-0.9,2.8-1.6,4.3-2.1c1.6-0.5,3.2-0.7,4.9-0.7v3.7H260.8"/>
	<path class="st1" d="M299.2,818.6c0-2.2-0.4-4.3-1.2-6.1c-0.8-1.8-1.9-3.4-3.2-4.7c-1.3-1.3-2.8-2.3-4.5-3s-3.5-1.1-5.3-1.1
		c-1.9,0-3.7,0.3-5.4,1c-1.7,0.7-3.1,1.7-4.3,2.9c-1.2,1.3-2.2,2.8-2.9,4.7c-0.7,1.8-1.1,3.9-1.1,6.3v0.1c0,2.3,0.4,4.4,1.1,6.2
		c0.7,1.9,1.7,3.5,3,4.8c1.3,1.3,2.7,2.3,4.4,3c1.7,0.7,3.4,1.1,5.2,1.1c1.8,0,3.6-0.4,5.3-1.1c1.7-0.7,3.2-1.8,4.5-3.1
		c1.3-1.3,2.4-2.9,3.2-4.7c0.8-1.8,1.2-3.9,1.2-6.1L299.2,818.6L299.2,818.6z M299,836.1v-7.8c-0.8,1.1-1.6,2.2-2.6,3.3
		c-0.9,1.1-2,2-3.1,2.7c-1.2,0.8-2.5,1.4-3.9,1.9s-3,0.7-4.7,0.7c-2.1,0-4.2-0.4-6.2-1.2s-3.8-2-5.4-3.6c-1.6-1.6-2.9-3.5-3.9-5.7
		c-1-2.3-1.5-4.8-1.5-7.6v-0.1c0-2.8,0.5-5.4,1.5-7.6c1-2.3,2.3-4.2,3.9-5.7c1.6-1.6,3.4-2.8,5.4-3.6c2-0.8,4.1-1.3,6.2-1.3
		c1.7,0,3.3,0.2,4.8,0.7s2.8,1.1,3.9,1.8c1.2,0.8,2.2,1.7,3.1,2.7s1.8,2.1,2.5,3.1v-22.6h3.3v50L299,836.1L299,836.1z"/>
	<rect x="316.3" y="830.3" class="st1" width="4.5" height="5.8"/>
	<path class="st1" d="M391.6,801.9c0-3.2-1.2-5.8-3.6-7.7c-2.4-1.9-5.8-2.8-10.1-2.8h-16.3V813h16.1c2,0,3.9-0.3,5.6-0.8
		s3.2-1.2,4.4-2.2c1.2-0.9,2.2-2.1,2.9-3.4c0.7-1.3,1.1-2.9,1.1-4.6v-0.1H391.6z M392.4,836.1l-15.2-19.8h-15.6v19.8H358v-47.9h20.1
		c2.6,0,4.9,0.3,7,1c2.1,0.7,3.9,1.6,5.4,2.8c1.5,1.2,2.6,2.6,3.4,4.3c0.8,1.7,1.2,3.5,1.2,5.5v0.1c0,2-0.4,3.8-1.1,5.4
		c-0.7,1.6-1.7,2.9-2.9,4.1c-1.3,1.1-2.7,2.1-4.4,2.8c-1.7,0.7-3.6,1.2-5.6,1.5l15.8,20.5L392.4,836.1L392.4,836.1z"/>
	<path class="st1" d="M434.5,817c-0.1-1.8-0.5-3.5-1.1-5.1c-0.6-1.6-1.4-3.1-2.4-4.3c-1-1.3-2.3-2.3-3.8-3c-1.5-0.8-3.3-1.1-5.3-1.1
		c-1.7,0-3.4,0.3-4.9,1s-2.8,1.6-3.9,2.8c-1.1,1.2-2,2.6-2.8,4.3c-0.7,1.7-1.2,3.5-1.3,5.4H434.5L434.5,817z M410.5,825.8
		c0.8,1.7,1.8,3.1,3.1,4.3c1.2,1.2,2.6,2.1,4.2,2.7c1.6,0.6,3.2,0.9,5,0.9c2.7,0,5-0.5,6.9-1.6c1.9-1,3.6-2.3,5-3.9l2.3,2.1
		c-1.8,1.9-3.8,3.5-6,4.8c-2.3,1.3-5,1.9-8.4,1.9c-2.3,0-4.5-0.4-6.5-1.3c-2.1-0.9-3.9-2.1-5.5-3.7s-2.8-3.5-3.7-5.7
		s-1.4-4.7-1.4-7.5v-0.1c0-2.5,0.4-4.9,1.3-7.1c0.8-2.2,2-4.1,3.5-5.8c1.5-1.6,3.2-2.9,5.2-3.9s4.2-1.4,6.5-1.4
		c2.5,0,4.7,0.5,6.6,1.4c2,0.9,3.6,2.2,5,3.9c1.4,1.6,2.5,3.6,3.2,5.8c0.8,2.2,1.1,4.6,1.1,7.2v0.1v0.6c0,0.1,0,0.3-0.1,0.6h-28.9
		C409.2,822.2,409.7,824.1,410.5,825.8z"/>
	<path class="st1" d="M499,836.1v-20.7c0-3.8-0.9-6.7-2.7-8.8s-4.3-3.1-7.6-3.1c-1.5,0-2.9,0.3-4.2,0.8s-2.5,1.3-3.5,2.4
		s-1.8,2.3-2.4,3.9c-0.6,1.5-0.9,3.3-0.9,5.2v20.3h-3.3v-20.9c0-3.6-0.9-6.5-2.7-8.6s-4.3-3.1-7.4-3.1c-1.5,0-3,0.3-4.4,1
		c-1.4,0.6-2.5,1.5-3.5,2.7c-1,1.2-1.8,2.5-2.4,4c-0.6,1.5-0.9,3.1-0.9,4.9v20.1h-3.3v-34.9h3.3v6.2c0.5-0.9,1.2-1.8,1.9-2.6
		s1.5-1.6,2.4-2.3c0.9-0.7,2-1.2,3.2-1.6c1.2-0.4,2.6-0.6,4.1-0.6s2.9,0.2,4.1,0.6c1.3,0.4,2.4,1,3.3,1.6c1,0.7,1.8,1.5,2.5,2.4
		c0.7,0.9,1.3,1.9,1.8,2.9c0.5-1,1.2-1.9,2-2.8s1.7-1.7,2.7-2.4c1-0.7,2.2-1.3,3.5-1.7s2.8-0.6,4.4-0.6c2,0,3.9,0.4,5.6,1.1
		c1.7,0.7,3.1,1.7,4.2,2.9c1.2,1.3,2,2.8,2.7,4.6c0.6,1.8,0.9,3.8,0.9,6v21.1H499"/>
	<path class="st1" d="M543.2,817c-0.1-1.8-0.5-3.5-1.1-5.1c-0.6-1.6-1.4-3.1-2.4-4.3c-1-1.3-2.3-2.3-3.8-3c-1.5-0.8-3.3-1.1-5.3-1.1
		c-1.7,0-3.4,0.3-4.9,1s-2.8,1.6-3.9,2.8c-1.1,1.2-2,2.6-2.8,4.3c-0.7,1.7-1.2,3.5-1.3,5.4H543.2L543.2,817z M519.3,825.8
		c0.8,1.7,1.8,3.1,3.1,4.3c1.2,1.2,2.6,2.1,4.2,2.7c1.6,0.6,3.2,0.9,5,0.9c2.7,0,5-0.5,6.9-1.6c1.9-1,3.6-2.3,5-3.9l2.3,2.1
		c-1.8,1.9-3.8,3.5-6,4.8c-2.3,1.3-5,1.9-8.4,1.9c-2.3,0-4.5-0.4-6.5-1.3c-2.1-0.9-3.9-2.1-5.5-3.7s-2.8-3.5-3.7-5.7
		s-1.4-4.7-1.4-7.5v-0.1c0-2.5,0.4-4.9,1.3-7.1c0.8-2.2,2-4.1,3.5-5.8c1.5-1.6,3.2-2.9,5.2-3.9s4.2-1.4,6.5-1.4
		c2.5,0,4.7,0.5,6.6,1.4c2,0.9,3.6,2.2,5,3.9c1.4,1.6,2.5,3.6,3.2,5.8s1.1,4.6,1.1,7.2v0.1v0.6c0,0.1,0,0.3-0.1,0.6h-28.8
		C518,822.2,518.4,824.1,519.3,825.8z"/>
	<path class="st1" d="M607.7,836.1v-20.7c0-3.8-0.9-6.7-2.7-8.8s-4.3-3.1-7.6-3.1c-1.5,0-2.9,0.3-4.2,0.8s-2.5,1.3-3.5,2.4
		s-1.8,2.3-2.4,3.9c-0.6,1.5-0.9,3.3-0.9,5.2v20.3h-3.3v-20.9c0-3.6-0.9-6.5-2.7-8.6s-4.3-3.1-7.4-3.1c-1.5,0-3,0.3-4.4,1
		c-1.4,0.6-2.5,1.5-3.5,2.7c-1,1.1-1.8,2.5-2.4,4c-0.6,1.5-0.9,3.1-0.9,4.9v20.1h-3.3v-34.9h3.3v6.2c0.5-0.9,1.2-1.8,1.9-2.6
		s1.5-1.6,2.4-2.3s2-1.2,3.2-1.6c1.2-0.4,2.6-0.6,4.1-0.6s2.9,0.2,4.1,0.6c1.3,0.4,2.4,1,3.3,1.6c1,0.7,1.8,1.5,2.5,2.4
		c0.7,0.9,1.3,1.9,1.8,2.9c0.5-1,1.2-1.9,2-2.8s1.7-1.7,2.7-2.4c1-0.7,2.2-1.3,3.5-1.7s2.8-0.6,4.4-0.6c2,0,3.9,0.4,5.6,1.1
		c1.7,0.7,3.1,1.7,4.2,2.9c1.2,1.3,2,2.8,2.7,4.6c0.6,1.8,0.9,3.8,0.9,6v21.1H607.7"/>
	<path class="st1" d="M656.4,818.6c0-2.3-0.4-4.4-1.1-6.2c-0.7-1.9-1.7-3.5-3-4.8c-1.3-1.3-2.7-2.3-4.4-3c-1.7-0.7-3.4-1.1-5.2-1.1
		s-3.6,0.4-5.3,1.1c-1.7,0.7-3.2,1.8-4.5,3.1s-2.4,2.9-3.2,4.7c-0.8,1.8-1.2,3.9-1.2,6.1v0.1c0,2.2,0.4,4.3,1.2,6.1
		c0.8,1.8,1.9,3.4,3.2,4.7c1.3,1.3,2.8,2.3,4.5,3c1.7,0.7,3.5,1.1,5.3,1.1c1.9,0,3.7-0.3,5.4-1s3.1-1.7,4.3-2.9
		c1.2-1.3,2.2-2.8,2.9-4.7C656,823.1,656.4,821,656.4,818.6L656.4,818.6z M658.5,826.3c-1,2.3-2.3,4.2-3.9,5.7
		c-1.6,1.6-3.4,2.8-5.4,3.6s-4.1,1.3-6.2,1.3c-1.7,0-3.3-0.2-4.8-0.7s-2.8-1.1-3.9-1.8c-1.2-0.8-2.2-1.7-3.1-2.7
		c-0.9-1-1.8-2.1-2.5-3.1v7.5h-3.3v-50h3.3V809c0.7-1.1,1.6-2.2,2.5-3.3c1-1.1,2-2,3.2-2.7c1.2-0.8,2.5-1.4,3.9-1.9s3-0.7,4.7-0.7
		c2.1,0,4.1,0.4,6.2,1.2c2,0.8,3.8,2,5.4,3.6c1.6,1.6,2.9,3.5,3.9,5.7c1,2.3,1.5,4.8,1.5,7.6v0.1C660,821.5,659.5,824,658.5,826.3z"
		/>
	<path class="st1" d="M699,817c-0.1-1.8-0.5-3.5-1.1-5.1c-0.6-1.6-1.4-3.1-2.4-4.3c-1-1.3-2.3-2.3-3.8-3c-1.5-0.8-3.3-1.1-5.3-1.1
		c-1.7,0-3.4,0.3-4.9,1s-2.8,1.6-3.9,2.8c-1.1,1.2-2,2.6-2.8,4.3c-0.7,1.7-1.2,3.5-1.3,5.4H699L699,817z M675,825.8
		c0.8,1.7,1.8,3.1,3.1,4.3c1.2,1.2,2.6,2.1,4.2,2.7c1.6,0.6,3.2,0.9,5,0.9c2.7,0,5-0.5,6.9-1.6c1.9-1,3.6-2.3,5-3.9l2.3,2.1
		c-1.8,1.9-3.8,3.5-6,4.8c-2.3,1.3-5,1.9-8.4,1.9c-2.3,0-4.5-0.4-6.5-1.3c-2.1-0.9-3.9-2.1-5.5-3.7s-2.8-3.5-3.7-5.7
		s-1.4-4.7-1.4-7.5v-0.1c0-2.5,0.4-4.9,1.3-7.1c0.8-2.2,2-4.1,3.5-5.8c1.5-1.6,3.2-2.9,5.2-3.9s4.2-1.4,6.5-1.4
		c2.5,0,4.7,0.5,6.6,1.4c2,0.9,3.6,2.2,5,3.9c1.4,1.6,2.5,3.6,3.2,5.8s1.1,4.6,1.1,7.2v0.1v0.6c0,0.1,0,0.3-0.1,0.6h-28.8
		C673.7,822.2,674.2,824.1,675,825.8z"/>
	<path class="st1" d="M732.7,804.3c-2,0-3.9,0.4-5.7,1.1c-1.8,0.8-3.4,1.9-4.8,3.4c-1.4,1.5-2.5,3.3-3.3,5.5s-1.2,4.7-1.2,7.5v14.3
		h-3.3v-34.9h3.3v9.9c0.7-1.6,1.5-3,2.6-4.3c1-1.3,2.2-2.5,3.5-3.4c1.3-0.9,2.8-1.6,4.3-2.1c1.6-0.5,3.2-0.7,4.9-0.7v3.7H732.7"/>
	<path class="st1" d="M768.3,817c-0.1-1.8-0.5-3.5-1.1-5.1c-0.6-1.6-1.4-3.1-2.4-4.3c-1-1.3-2.3-2.3-3.8-3c-1.5-0.8-3.3-1.1-5.3-1.1
		c-1.7,0-3.4,0.3-4.9,1s-2.8,1.6-3.9,2.8c-1.1,1.2-2,2.6-2.8,4.3c-0.7,1.7-1.2,3.5-1.3,5.4H768.3L768.3,817z M744.4,825.8
		c0.8,1.7,1.8,3.1,3.1,4.3c1.2,1.2,2.6,2.1,4.2,2.7c1.6,0.6,3.2,0.9,5,0.9c2.7,0,5-0.5,6.9-1.6c1.9-1,3.6-2.3,5-3.9l2.3,2.1
		c-1.8,1.9-3.8,3.5-6,4.8c-2.3,1.3-5,1.9-8.4,1.9c-2.3,0-4.5-0.4-6.5-1.3c-2.1-0.9-3.9-2.1-5.5-3.7s-2.8-3.5-3.7-5.7
		s-1.4-4.7-1.4-7.5v-0.1c0-2.5,0.4-4.9,1.3-7.1c0.8-2.2,2-4.1,3.5-5.8c1.5-1.6,3.2-2.9,5.2-3.9s4.2-1.4,6.5-1.4
		c2.5,0,4.7,0.5,6.6,1.4c2,0.9,3.6,2.2,5,3.9c1.4,1.6,2.5,3.6,3.2,5.8c0.8,2.2,1.1,4.6,1.1,7.2v0.1v0.6c0,0.1,0,0.3-0.1,0.6H743
		C743.1,822.2,743.6,824.1,744.4,825.8z"/>
	<path class="st1" d="M812.8,818.6c0-2.2-0.4-4.3-1.2-6.1c-0.8-1.8-1.9-3.4-3.2-4.7s-2.8-2.3-4.5-3s-3.5-1.1-5.3-1.1
		c-1.9,0-3.7,0.3-5.4,1c-1.7,0.7-3.1,1.7-4.3,2.9c-1.2,1.3-2.2,2.8-2.9,4.7c-0.7,1.8-1.1,3.9-1.1,6.3v0.1c0,2.3,0.4,4.4,1.1,6.2
		c0.7,1.9,1.7,3.5,3,4.8c1.3,1.3,2.7,2.3,4.4,3c1.7,0.7,3.4,1.1,5.2,1.1s3.6-0.4,5.3-1.1c1.7-0.7,3.2-1.8,4.5-3.1
		c1.3-1.3,2.4-2.9,3.2-4.7s1.2-3.9,1.2-6.1V818.6z M812.6,836.1v-7.8c-0.8,1.1-1.6,2.2-2.6,3.3c-0.9,1.1-2,2-3.1,2.7
		c-1.2,0.8-2.5,1.4-3.9,1.9s-3,0.7-4.7,0.7c-2.1,0-4.2-0.4-6.2-1.2s-3.8-2-5.4-3.6c-1.6-1.6-2.9-3.5-3.9-5.7c-1-2.3-1.5-4.8-1.5-7.6
		v-0.1c0-2.8,0.5-5.4,1.5-7.6c1-2.3,2.3-4.2,3.9-5.7c1.6-1.6,3.4-2.8,5.4-3.6c2-0.8,4.1-1.3,6.2-1.3c1.7,0,3.3,0.2,4.8,0.7
		s2.8,1.1,3.9,1.8c1.2,0.8,2.2,1.7,3.1,2.7c0.9,1,1.8,2.1,2.5,3.1v-22.6h3.3v50L812.6,836.1L812.6,836.1z"/>
	<rect x="829.9" y="830.3" class="st1" width="4.5" height="5.8"/>
	<g>
		<path class="st1" d="M-97.8,423.2l-14-54.4h7.4l11.1,43.8l10.3-43.9h7.4l9.7,43.4l12-43.4h6.3l-15.3,54.4h-7.7l-9.6-42l-10,42
			h-7.6V423.2z"/>
		<path class="st1" d="M-11.5,421.9c-4.9,1.5-9,2.2-12.5,2.2c-5.9,0-10.7-2-14.4-5.9c-3.7-3.9-5.6-8.9-5.6-15.2
			c0-6.1,1.6-11,4.9-14.9s7.5-5.8,12.6-5.8c4.8,0,8.6,1.7,11.2,5.2c2.6,3.4,4,8.3,4,14.6v2.2h-25.3c1.1,9.5,5.7,14.2,13.9,14.2
			c3,0,6.7-0.8,11.1-2.4L-11.5,421.9L-11.5,421.9z M-36.2,398.9h17.6c0-7.4-2.8-11.1-8.3-11.1C-32.5,387.8-35.6,391.5-36.2,398.9z"
			/>
		<path class="st1" d="M1.2,423.6v-58.5h7.2v25.6c3-5.6,7.4-8.4,13.4-8.4c4.8,0,8.6,1.8,11.3,5.3c2.8,3.5,4.1,8.3,4.1,14.4
			c0,6.6-1.6,12-4.7,16c-3.1,4.1-7.2,6.1-12.3,6.1c-4.7,0-8.7-1.8-11.8-5.4l-0.9,5H1.2V423.6z M8.4,413.7c3.7,3.3,7.3,5,10.7,5
			c7,0,10.4-5.3,10.4-15.9c0-9.4-3.1-14.1-9.3-14.1c-4,0-8,2.2-11.8,6.6C8.4,395.3,8.4,413.7,8.4,413.7z"/>
		<path class="st1" d="M57.7,424.1c-3.3,0-7.3-0.8-12.1-2.3v-6.7c4.7,2.4,8.9,3.5,12.4,3.5c2.1,0,3.8-0.6,5.2-1.7s2.1-2.5,2.1-4.2
			c0-2.5-1.9-4.5-5.8-6.1l-4.2-1.8c-6.3-2.6-9.4-6.3-9.4-11.2c0-3.5,1.2-6.2,3.7-8.2s5.8-3,10.1-3c2.2,0,5,0.3,8.3,0.9l1.5,0.3v6
			c-4-1.2-7.3-1.8-9.6-1.8c-4.7,0-7,1.7-7,5.1c0,2.2,1.8,4,5.3,5.5l3.5,1.5c3.9,1.7,6.7,3.4,8.4,5.3c1.6,1.9,2.5,4.2,2.5,6.9
			c0,3.5-1.4,6.4-4.2,8.6C65.5,423,62,424.1,57.7,424.1z"/>
		<path class="st1" d="M83.4,376v-7.2h7.2v7.2H83.4z M83.4,423.2v-40h7.2v40H83.4z"/>
		<path class="st1" d="M123,418.2v5c-1.3,0.3-2.3,0.6-3.1,0.7s-1.7,0.2-2.7,0.2c-3.1,0-5.6-0.8-7.7-2.4c-2.7-2.1-4-5.3-4-9.6v-23.4
			h-5v-5.4h5v-7.5l7.2-0.9v8.5h10.8v5.4h-10.8v22.1c0,2.8,0.5,4.8,1.5,6c0.5,0.6,1.2,1,2.1,1.4c0.9,0.4,2,0.5,3.1,0.5
			C120.5,418.7,121.7,418.5,123,418.2z"/>
		<path class="st1" d="M162.7,421.9c-4.9,1.5-9,2.2-12.5,2.2c-5.9,0-10.7-2-14.4-5.9c-3.7-3.9-5.6-9-5.6-15.2c0-6.1,1.6-11,4.9-14.9
			s7.5-5.8,12.6-5.8c4.8,0,8.6,1.7,11.2,5.2c2.6,3.4,4,8.3,4,14.6v2.2h-25.2c1.1,9.5,5.7,14.2,13.9,14.2c3,0,6.7-0.8,11.1-2.4V421.9
			z M138,398.9h17.6c0-7.4-2.8-11.1-8.3-11.1C141.7,387.8,138.6,391.5,138,398.9z"/>
		<path class="st1" d="M224.9,423.2v-7.5c-2.9,5.6-7.4,8.4-13.3,8.4c-4.8,0-8.6-1.8-11.3-5.3s-4.1-8.3-4.1-14.4c0-6.6,1.6-12,4.7-16
			s7.2-6.1,12.3-6.1c4.7,0,8.7,1.8,11.8,5.4v-22.6h7.3v58.1H224.9z M224.9,392.8c-3.8-3.3-7.3-5-10.7-5c-6.9,0-10.4,5.3-10.4,15.9
			c0,9.3,3.1,14,9.3,14c4,0,8-2.2,11.8-6.6L224.9,392.8L224.9,392.8z"/>
		<path class="st1" d="M275.9,421.9c-4.9,1.5-9,2.2-12.5,2.2c-5.9,0-10.7-2-14.4-5.9c-3.7-3.9-5.6-9-5.6-15.2c0-6.1,1.6-11,4.9-14.9
			s7.5-5.8,12.6-5.8c4.8,0,8.6,1.7,11.2,5.2c2.6,3.4,4,8.3,4,14.6v2.2h-25.2c1.1,9.5,5.7,14.2,13.9,14.2c3,0,6.7-0.8,11.1-2.4V421.9
			z M251.2,398.9h17.6c0-7.4-2.8-11.1-8.3-11.1C254.9,387.8,251.8,391.5,251.2,398.9z"/>
		<path class="st1" d="M297.7,424.1c-3.3,0-7.3-0.8-12.1-2.3v-6.7c4.7,2.4,8.9,3.5,12.4,3.5c2.1,0,3.8-0.6,5.2-1.7
			c1.4-1.1,2.1-2.5,2.1-4.2c0-2.5-1.9-4.5-5.8-6.1l-4.2-1.8c-6.3-2.6-9.4-6.3-9.4-11.2c0-3.5,1.2-6.2,3.7-8.2s5.8-3,10.1-3
			c2.2,0,5,0.3,8.3,0.9l1.5,0.3v6c-4-1.2-7.3-1.8-9.6-1.8c-4.7,0-7,1.7-7,5.1c0,2.2,1.8,4,5.3,5.5l3.5,1.5c3.9,1.7,6.7,3.4,8.4,5.3
			c1.6,1.9,2.5,4.2,2.5,6.9c0,3.5-1.4,6.4-4.2,8.6C305.5,423,302,424.1,297.7,424.1z"/>
		<path class="st1" d="M323.5,376v-7.2h7.2v7.2H323.5z M323.5,423.2v-40h7.2v40H323.5z"/>
		<path class="st1" d="M345.4,436.5l0.8-6.3c4.2,2,8.3,3,12.4,3c8.2,0,12.3-4.3,12.3-13v-6.3c-2.7,5.6-7.1,8.4-13.2,8.4
			c-4.8,0-8.6-1.7-11.4-5.2s-4.2-8.2-4.2-14.1c0-6.1,1.6-11,4.8-14.9c3.2-3.8,7.4-5.7,12.5-5.7c4.5,0,8.3,1.8,11.5,5.4v-4.6h7.3
			v29.1c0,6.3-0.3,10.9-1,13.9s-1.9,5.5-3.7,7.4c-3.2,3.4-8.1,5-14.8,5C354.1,438.6,349.7,437.9,345.4,436.5z M370.9,409.4v-16.6
			c-3.2-3.3-6.7-5-10.4-5c-3.3,0-5.9,1.3-7.8,4c-1.9,2.7-2.8,6.3-2.8,11c0,8.8,3.1,13.1,9.2,13.1
			C363.2,415.9,367.2,413.7,370.9,409.4z"/>
		<path class="st1" d="M392.2,423.2v-40h7.2v7.5c3.8-5.6,8.5-8.4,14.1-8.4c3.5,0,6.2,1.1,8.3,3.3c2.1,2.2,3.1,5.1,3.1,8.8v28.7h-7.2
			v-26.3c0-3-0.4-5.1-1.3-6.3c-0.9-1.3-2.3-1.9-4.3-1.9c-4.4,0-8.6,2.9-12.5,8.7v25.9H392.2z"/>
		<path class="st1" d="M462.8,423.6v-58.5h7.2v25.6c3-5.6,7.4-8.4,13.4-8.4c4.8,0,8.6,1.8,11.3,5.3s4.1,8.3,4.1,14.4
			c0,6.6-1.6,12-4.7,16c-3.1,4.1-7.2,6.1-12.3,6.1c-4.7,0-8.7-1.8-11.8-5.4l-0.9,5h-6.3V423.6z M470.1,413.7c3.7,3.3,7.3,5,10.7,5
			c7,0,10.4-5.3,10.4-15.9c0-9.4-3.1-14.1-9.3-14.1c-4,0-8,2.2-11.8,6.6L470.1,413.7L470.1,413.7z"/>
		<path class="st1" d="M510.9,437.7l7.5-14.5l-14.9-40h7.7l11.4,31.5l12-31.5h6.8L520,437.7H510.9z"/>
	</g>
</g>
</svg>
