<?xml version="1.0" encoding="UTF-8" standalone="no"?>
<svg width="56px" height="15px" viewBox="0 0 56 15" version="1.1" xmlns="http://www.w3.org/2000/svg" xmlns:xlink="http://www.w3.org/1999/xlink" xmlns:sketch="http://www.bohemiancoding.com/sketch/ns">
    <!-- Generator: Sketch 3.4.3 (16044) - http://www.bohemiancoding.com/sketch -->
    <title>Page 1 Copy 4</title>
    <desc>Created with Sketch.</desc>
    <defs>
        <path id="path-1" d="M0,0.0806410256 L55.8854888,0.0806410256 L55.8854888,14.8717949 L0,14.8717949 L0,0.0806410256 Z"></path>
    </defs>
    <g id="White" stroke="none" stroke-width="1" fill="none" fill-rule="evenodd" sketch:type="MSPage">
        <g id="Desktop" sketch:type="MSArtboardGroup" transform="translate(-203.000000, -3003.000000)">
            <g id="Page-1-Copy-4" sketch:type="MSLayerGroup" transform="translate(203.000000, 3003.000000)">
                <path d="M0,7.71380769 C0,11.8357308 2.84319283,14.8688077 6.7890583,14.8688077 C7.98565022,14.8688077 9.08920179,14.5834231 10.2493812,14.0103462 L10.2493812,9.94662821 C9.27616143,11.0529103 8.34148879,11.5876538 7.1632287,11.5876538 C5.03121076,11.5876538 3.64728251,9.88867949 3.64728251,7.7890641 C3.64728251,5.48021795 5.04966816,3.83880769 7.1632287,3.83880769 C8.34148879,3.83880769 9.27616143,4.37355128 10.2493812,5.48021795 L10.2493812,1.41573077 C9.08920179,0.843166667 7.98565022,0.5565 6.7890583,0.5565 C2.84319283,0.5565 0,3.59111538 0,7.71380769" id="Fill-1" fill="#FEFEFE" sketch:type="MSShapeGroup"></path>
                <mask id="mask-2" sketch:name="Clip 4" fill="white">
                    <use xlink:href="#path-1"></use>
                </mask>
                <g id="Clip-4"></g>
                <path d="M24.7070493,14.5085897 L27.9571839,14.5085897 L27.9571839,0.0806410256 L24.7070493,0.0806410256 L24.7070493,14.5085897 Z" id="Fill-3" fill="#FEFEFE" sketch:type="MSShapeGroup" mask="url(#mask-2)"></path>
                <path d="M35.1733489,9.82025641 C35.1733489,12.9458974 37.2096897,14.8717949 39.936739,14.8717949 C40.795322,14.8717949 41.5619946,14.6425641 42.3088287,14.2228205 L42.3088287,11.345641 C41.7675372,11.9173077 41.2439498,12.1647436 40.5537435,12.1647436 C39.1892771,12.1647436 38.3673578,11.2116667 38.3673578,9.80166667 C38.3673578,8.27641026 39.2268197,7.38025641 40.4786583,7.38025641 C41.1328287,7.38025641 41.6923265,7.64807692 42.3088287,8.20038462 L42.3088287,5.39833333 C41.580452,4.95987179 40.851322,4.8074359 39.9742816,4.8074359 C37.1720215,4.8074359 35.1733489,6.86551282 35.1733489,9.82025641" id="Fill-5" fill="#FEFEFE" sketch:type="MSShapeGroup" mask="url(#mask-2)"></path>
                <path d="M49.2250673,12.0884872 C48.0299821,12.0884872 47.3014798,11.2313077 47.3014798,9.83925641 C47.3014798,8.44784615 48.0299821,7.57105128 49.2250673,7.57105128 C50.4204036,7.57105128 51.1494081,8.44784615 51.1494081,9.83925641 C51.1494081,11.2313077 50.4204036,12.0884872 49.2250673,12.0884872 M49.2250673,4.80746154 C46.3110583,4.80746154 44.0885112,7.0565641 44.0885112,9.83925641 C44.0885112,12.6029744 46.2924753,14.8718205 49.2250673,14.8718205 C52.1392018,14.8718205 54.3810852,12.6225897 54.3810852,9.83925641 C54.3810852,7.0565641 52.1392018,4.80746154 49.2250673,4.80746154" id="Fill-6" fill="#FEFEFE" sketch:type="MSShapeGroup" mask="url(#mask-2)"></path>
                <path d="M30.1436951,14.5085897 L33.3938296,14.5085897 L33.3938296,5.11192308 L30.1436951,5.11192308 L30.1436951,14.5085897 Z" id="Fill-7" fill="#FEFEFE" sketch:type="MSShapeGroup" mask="url(#mask-2)"></path>
                <path d="M31.7684484,0.0806410256 C30.779157,0.0806410256 29.9751928,0.919102564 29.9751928,1.91064103 C29.9751928,2.88269231 30.7599462,3.75948718 31.7684484,3.75948718 C32.7404126,3.75948718 33.5629596,2.93935897 33.5629596,1.91064103 C33.5629596,0.881153846 32.7587444,0.0806410256 31.7684484,0.0806410256" id="Fill-8" fill="#FEFEFE" sketch:type="MSShapeGroup" mask="url(#mask-2)"></path>
                <path d="M55.595896,2.44383333 C55.5272143,2.6079359 55.4339229,2.75101282 55.3160215,2.87280769 C55.1981202,2.99421795 55.0588735,3.09024359 54.8981561,3.16037179 C54.7374386,3.23075641 54.5664251,3.26562821 54.3849901,3.26562821 C54.2009184,3.26562821 54.0286493,3.23075641 53.8679318,3.16037179 C53.7072143,3.09024359 53.5673399,2.99421795 53.4480574,2.87280769 C53.3287749,2.75101282 53.2348556,2.6079359 53.166174,2.44383333 C53.0976179,2.28011538 53.0632143,2.10396154 53.0632143,1.91601282 C53.0632143,1.73088462 53.0976179,1.55614103 53.166174,1.39203846 C53.2348556,1.2279359 53.3287749,1.08575641 53.4480574,0.965371795 C53.5673399,0.844858974 53.7072143,0.749858974 53.8679318,0.679474359 C54.0286493,0.609346154 54.2009184,0.574474359 54.3849901,0.574474359 C54.5664251,0.574474359 54.7374386,0.609346154 54.8981561,0.679474359 C55.0588735,0.749858974 55.1981202,0.844858974 55.3160215,0.965371795 C55.4339229,1.08575641 55.5272143,1.2279359 55.595896,1.39203846 C55.6645776,1.55614103 55.6989812,1.73088462 55.6989812,1.91601282 C55.6989812,2.10396154 55.6645776,2.28011538 55.595896,2.44383333 M55.767035,1.32062821 C55.6879318,1.13562821 55.580452,0.973448718 55.4443444,0.834474359 C55.3083623,0.695628205 55.1495283,0.58575641 54.9680933,0.504987179 C54.7866583,0.424217949 54.5924161,0.383833333 54.3849901,0.383833333 C54.1776897,0.383833333 53.9819408,0.424217949 53.7979946,0.504987179 C53.6139229,0.58575641 53.4539587,0.695628205 53.3178511,0.834474359 C53.1818691,0.973448718 53.0742637,1.13562821 52.9951605,1.32062821 C52.916183,1.50575641 52.8766314,1.70447436 52.8766314,1.91601282 C52.8766314,2.1279359 52.916183,2.32755128 52.9951605,2.5155 C53.0742637,2.70319231 53.1818691,2.86665385 53.3178511,3.00562821 C53.4539587,3.14447436 53.6139229,3.25434615 53.7979946,3.33511538 C53.9819408,3.41588462 54.1776897,3.45614103 54.3849901,3.45614103 C54.5924161,3.45614103 54.7866583,3.41588462 54.9680933,3.33511538 C55.1495283,3.25434615 55.3083623,3.14447436 55.4443444,3.00562821 C55.580452,2.86665385 55.6879318,2.70319231 55.767035,2.5155 C55.8460126,2.32755128 55.8855641,2.1279359 55.8855641,1.91601282 C55.8855641,1.70447436 55.8460126,1.50575641 55.767035,1.32062821" id="Fill-9" fill="#FEFEFE" sketch:type="MSShapeGroup" mask="url(#mask-2)"></path>
                <path d="M54.5386009,1.82684615 C54.4672825,1.8255641 54.4029955,1.82492308 54.3461166,1.82492308 L54.023426,1.82492308 L54.023426,1.30069231 L54.5093453,1.30069231 C54.558565,1.30069231 54.6097937,1.30351282 54.6629058,1.30876923 C54.7161435,1.31415385 54.7639821,1.32582051 54.8066726,1.34453846 C54.8496143,1.363 54.8845202,1.38812821 54.9117668,1.41979487 C54.9390135,1.45146154 54.952574,1.4954359 54.952574,1.55094872 C54.952574,1.63017949 54.9318565,1.68928205 54.8904215,1.72735897 C54.8489865,1.76582051 54.7977578,1.79223077 54.736861,1.80684615 C54.6759641,1.82133333 54.6097937,1.82812821 54.5386009,1.82684615 M54.9914978,1.90594872 C55.0380807,1.8704359 55.0743677,1.82325641 55.1003587,1.76517949 C55.1262242,1.70697436 55.1392825,1.63697436 55.1392825,1.55492308 C55.1392825,1.41723077 55.0963408,1.30876923 55.0109596,1.22928205 C54.9253274,1.15005128 54.7737758,1.1104359 54.5560538,1.1104359 L53.836843,1.1104359 L53.836843,2.78915385 L54.023426,2.78915385 L54.023426,2.01517949 L54.4082691,2.01517949 L54.8787444,2.78915385 L55.1198206,2.78915385 L54.6220987,2.01517949 C54.6946726,2.01261538 54.7627265,2.00287179 54.8261345,1.9854359 C54.8897937,1.96838462 54.9447892,1.94184615 54.9914978,1.90594872" id="Fill-10" fill="#FEFEFE" sketch:type="MSShapeGroup" mask="url(#mask-2)"></path>
                <path d="M17.3908502,12.2126538 C16.0648054,12.2126538 15.2613435,11.3162436 15.2613435,9.8489359 C15.2613435,8.39996154 16.0648054,7.4665 17.3908502,7.4665 L17.5681417,7.4665 C18.894061,7.4665 19.5390655,8.39996154 19.5390655,9.8489359 C19.5390655,11.3162436 18.7167695,12.2126538 17.3908502,12.2126538 L17.3908502,12.2126538 Z M19.5383121,6.66355128 C18.8099354,5.38662821 17.8275498,4.80739744 16.4452538,4.80739744 C13.8300789,4.80739744 12.1863659,6.77137179 12.1863659,9.82047436 C12.1863659,12.9279103 13.8300789,14.8717564 16.2393345,14.8717564 C17.6919444,14.8717564 18.6798547,14.3031667 19.5368054,12.9986795 L19.5368054,14.5086795 L22.5349399,14.5086795 L22.5349399,5.11278205 L19.5368054,5.11278205 L19.5383121,6.66355128 Z" id="Fill-11" fill="#FEFEFE" sketch:type="MSShapeGroup" mask="url(#mask-2)"></path>
            </g>
        </g>
    </g>
</svg>